<svg width="2000" height="2000" viewBox="0 0 2000 2000" fill="none" xmlns="http://www.w3.org/2000/svg">
<path d="M462.158 500.541C506.104 500.541 541.016 500.541 566.895 500.541C592.936 500.541 608.724 500.622 614.258 500.785C638.346 501.924 655.355 504.773 665.283 509.33C675.212 513.725 683.105 518.689 688.965 524.223C701.497 536.592 707.764 551.566 707.764 569.145C707.764 586.56 701.66 601.859 689.453 615.043C685.71 619.112 681.396 622.611 676.514 625.541C703.044 630.424 724.772 641.573 741.699 658.988C760.091 677.868 769.287 700.899 769.287 728.08C769.287 755.749 760.742 779.594 743.652 799.613C719.727 827.283 682.78 842.419 632.812 845.023C620.117 845.674 607.585 846 595.215 846H462.158V500.541ZM622.314 620.658L634.766 622.123H638.672C651.53 622.123 662.679 617.403 672.119 607.963C682.21 597.872 687.256 585.502 687.256 570.854C687.256 552.95 679.525 539.197 664.062 529.594C656.25 524.711 648.438 521.863 640.625 521.049C632.975 520.072 626.953 519.421 622.559 519.096C613.444 518.445 601.481 518.119 586.67 518.119V827.934H613.77C641.439 827.934 663.981 824.516 681.396 817.68C702.23 810.518 718.75 798.962 730.957 783.012C742.513 767.875 748.291 752.006 748.291 735.404C748.291 718.803 745.85 704.805 740.967 693.412C736.084 682.019 729.004 672.335 719.727 664.359C700.846 647.921 674.561 639.701 640.869 639.701L624.023 641.166C618.815 641.166 614.99 640.108 612.549 637.992C610.107 635.876 608.887 633.435 608.887 630.668C608.887 623.995 613.363 620.658 622.314 620.658ZM828.369 500.541H933.35V846H828.369V500.541ZM990.967 714.164C990.967 694.633 994.466 676.892 1001.46 660.941C1008.63 644.828 1018.39 630.831 1030.76 618.949C1057.45 593.559 1090.98 580.863 1131.35 580.863C1172.53 580.863 1206.05 594.047 1231.93 620.414C1256.67 645.316 1269.04 676.811 1269.04 714.896C1269.04 753.145 1256.35 785.128 1230.96 810.844C1204.75 837.374 1171.22 850.639 1130.37 850.639C1090.49 850.639 1057.45 838.025 1031.25 812.797C1004.39 786.755 990.967 753.878 990.967 714.164ZM1123.54 832.328C1124.84 832.491 1126.14 832.572 1127.44 832.572H1130.86C1163.74 832.572 1191.32 822.4 1213.62 802.055C1237.39 780.082 1249.27 751.273 1249.27 715.629C1249.27 680.798 1238.12 652.559 1215.82 630.912C1193.85 609.428 1165.45 598.686 1130.62 598.686H1126.95C1125.81 598.686 1124.67 598.767 1123.54 598.93V832.328ZM1385.01 766.41C1370.52 770.805 1363.28 775.606 1363.28 780.814C1363.28 785.86 1367.51 789.359 1375.98 791.312C1392.42 795.219 1415.04 797.579 1443.85 798.393C1472.66 799.044 1494.3 801.241 1508.79 804.984C1523.44 808.565 1535.07 813.122 1543.7 818.656C1559.33 828.91 1567.14 842.501 1567.14 859.428C1567.14 880.587 1556.64 897.758 1535.64 910.941C1512.37 925.427 1479.57 932.67 1437.26 932.67C1393.47 932.67 1357.34 926.16 1328.86 913.139C1318.6 908.093 1313.48 902.396 1313.48 896.049C1313.48 893.282 1314.45 891.085 1316.41 889.457C1318.52 887.829 1320.72 887.016 1323 887.016C1325.76 887.016 1328.94 888.074 1332.52 890.189C1340.82 894.91 1348.47 898.816 1355.47 901.908C1362.63 905.163 1373.78 908.256 1388.92 911.186C1404.05 914.115 1418.62 915.58 1432.62 915.58C1446.78 915.58 1458.25 914.929 1467.04 913.627C1475.99 912.488 1483.4 911.104 1489.26 909.477C1500.81 906.059 1506.59 902.234 1506.59 898.002C1506.59 894.096 1505.45 891.247 1503.17 889.457C1500.9 887.667 1497.88 886.039 1494.14 884.574C1490.56 883.272 1485.51 882.051 1479 880.912C1465.66 878.633 1447.51 876.924 1424.56 875.785C1401.61 874.646 1383.46 872.367 1370.12 868.949C1356.77 865.694 1345.87 861.462 1337.4 856.254C1320.96 846.326 1312.74 832.898 1312.74 815.971C1312.74 791.557 1329.26 771.781 1362.3 756.645C1347.17 748.344 1335.12 737.439 1326.17 723.93C1317.22 710.258 1312.74 695.528 1312.74 679.74C1312.74 663.79 1315.67 650.036 1321.53 638.48C1327.56 626.762 1335.94 616.671 1346.68 608.207C1369.3 589.978 1398.52 580.863 1434.33 580.863C1450.28 580.863 1466.31 583.305 1482.42 588.188C1505.53 565.889 1526.94 554.74 1546.63 554.74C1554.93 554.74 1561.04 556.124 1564.94 558.891C1569.01 561.658 1571.04 565.157 1571.04 569.389C1571.04 573.62 1569.66 576.713 1566.89 578.666C1564.13 580.456 1561.52 581.352 1559.08 581.352C1554.69 581.352 1550.94 580.863 1547.85 579.887C1543.29 578.259 1538.66 577.445 1533.94 577.445C1525.15 577.445 1514.08 583.549 1500.73 595.756C1527.26 608.777 1544.6 627.494 1552.73 651.908C1555.34 660.046 1556.64 670.056 1556.64 681.938C1556.64 693.656 1553.22 705.375 1546.39 717.094C1539.55 728.812 1530.44 738.904 1519.04 747.367C1495.28 764.945 1467.37 773.734 1435.3 773.734C1418.38 774.06 1401.61 771.618 1385.01 766.41ZM1436.28 755.912C1462.65 755.587 1485.35 749.158 1504.39 736.625C1526.37 722.302 1537.35 702.934 1537.35 678.52C1537.35 654.105 1526.53 634.411 1504.88 619.438C1485.03 605.766 1462.16 598.686 1436.28 598.197V755.912ZM217.529 1353.68L239.258 1354.66C270.833 1354.66 296.875 1344.24 317.383 1323.41C338.216 1302.41 349.121 1275.23 350.098 1241.87C351.888 1190.43 327.148 1155.68 275.879 1137.62C256.673 1130.78 231.689 1127.36 200.928 1127.36H180.42V1455H55.9082V1109.54H149.414C199.87 1109.54 230.306 1110.27 240.723 1111.74C251.139 1113.2 261.963 1115.07 273.193 1117.35C284.587 1119.63 296.794 1124.6 309.814 1132.25C322.998 1139.9 334.147 1149.01 343.262 1159.59C361.654 1181.07 370.524 1206.3 369.873 1235.27C368.896 1272.22 358.073 1302.98 337.402 1327.56C316.406 1352.3 287.435 1367.6 250.488 1373.46C239.746 1374.92 231.283 1375.65 225.098 1375.65C210.449 1375.65 203.125 1371.67 203.125 1363.69C203.125 1360.76 204.427 1358.4 207.031 1356.61C209.635 1354.66 213.135 1353.68 217.529 1353.68ZM591.064 1336.59L611.084 1338.06C639.73 1338.06 664.062 1328.05 684.082 1308.03C704.102 1288.01 714.111 1263.11 714.111 1233.32C714.111 1194.26 696.94 1165.29 662.598 1146.41C643.717 1135.99 623.535 1129.97 602.051 1128.34C592.936 1127.53 584.473 1127.12 576.66 1127.12H560.059C556.641 1127.12 553.63 1127.2 551.025 1127.36V1455H426.514V1109.54C464.6 1109.54 495.443 1109.54 519.043 1109.54C542.643 1109.54 558.024 1109.62 565.186 1109.79C572.347 1109.95 578.695 1110.19 584.229 1110.52C589.925 1110.68 595.215 1110.92 600.098 1111.25C607.259 1111.9 617.35 1113.45 630.371 1115.89C643.555 1118.33 656.576 1122.97 669.434 1129.8C682.292 1136.64 693.359 1145.1 702.637 1155.2C722.656 1176.68 732.666 1202.23 732.666 1231.86C732.666 1261.15 723.389 1287.03 704.834 1309.49C685.791 1332.44 660.4 1347.25 628.662 1353.93C643.799 1400.8 663.086 1428.8 686.523 1437.91C693.685 1440.68 700.846 1442.06 708.008 1442.06L727.295 1437.42C733.317 1437.42 736.328 1440.51 736.328 1446.7C736.328 1455.33 726.237 1459.64 706.055 1459.64C691.406 1459.64 677.979 1455.57 665.771 1447.43C646.729 1436.04 630.534 1413.9 617.188 1381.03L610.107 1363.69C608.968 1360.92 607.91 1359.22 606.934 1358.56C606.12 1357.91 604.574 1357.59 602.295 1357.59C600.179 1357.59 598.307 1357.75 596.68 1358.08L590.82 1358.32C584.31 1358.32 579.834 1357.1 577.393 1354.66C575.114 1352.22 573.975 1349.69 573.975 1347.09C573.975 1340.09 579.671 1336.59 591.064 1336.59ZM815.186 1420.09L815.918 1444.5C815.918 1448.73 814.779 1451.99 812.5 1454.27C810.221 1456.55 807.454 1457.69 804.199 1457.69C801.107 1457.69 798.503 1456.63 796.387 1454.51C794.271 1452.4 793.213 1450.12 793.213 1447.68C793.213 1445.07 793.376 1442.71 793.701 1440.6C794.189 1438.32 794.596 1435.79 794.922 1433.03C795.736 1428.31 796.143 1416.51 796.143 1397.63V1093.92L1061.52 1304.37V1158.86C1061.52 1147.79 1061.2 1139.9 1060.55 1135.18C1059.73 1127.53 1059.33 1122.15 1059.33 1119.06C1059.33 1110.92 1062.83 1106.86 1069.82 1106.86C1072.59 1106.86 1075.2 1107.83 1077.64 1109.79C1080.24 1111.74 1081.54 1114.59 1081.54 1118.33V1126.88L1080.57 1162.28V1468.43L815.186 1260.18V1420.09ZM1396.24 1442.79C1396.24 1450.93 1388.02 1455 1371.58 1455H1134.28C1138.35 1422.45 1163.74 1373.21 1210.45 1307.29C1264.32 1233.73 1293.21 1193.61 1297.12 1186.93C1301.19 1180.26 1303.87 1175.38 1305.18 1172.29C1307.45 1167.4 1308.59 1162.44 1308.59 1157.39C1308.59 1152.35 1307.45 1147.63 1305.18 1143.23C1303.06 1138.68 1299.8 1134.85 1295.41 1131.76C1285.81 1124.92 1272.14 1121.5 1254.39 1121.5C1237.63 1121.5 1223.14 1124.11 1210.94 1129.32C1190.27 1138.27 1177 1147.63 1171.14 1157.39C1166.75 1164.23 1161.7 1167.65 1156.01 1167.65C1150.31 1167.65 1147.46 1164.15 1147.46 1157.15C1147.46 1148.52 1155.27 1139.08 1170.9 1128.83C1195.64 1113.04 1225.02 1105.15 1259.03 1105.15C1300.54 1105.15 1333.82 1114.02 1358.89 1131.76C1382.81 1148.68 1394.78 1170.33 1394.78 1196.7C1394.78 1211.84 1392.66 1224.45 1388.43 1234.54C1384.36 1244.47 1380.37 1253.01 1376.46 1260.18C1372.56 1267.34 1367.84 1275.31 1362.3 1284.1L1315.43 1354.17C1292.97 1387.21 1277.26 1414.96 1268.31 1437.42H1339.84C1348.96 1437.42 1357.42 1436.69 1365.23 1435.22C1374.84 1433.43 1381.43 1432.54 1385.01 1432.54C1388.75 1432.54 1391.52 1433.68 1393.31 1435.96C1395.26 1438.07 1396.24 1440.35 1396.24 1442.79ZM1567.63 1253.83C1571.53 1253.83 1575.28 1253.67 1578.86 1253.34V1123.46L1573.49 1122.97C1571.7 1122.81 1569.99 1122.72 1568.36 1122.72C1566.73 1122.72 1563.23 1122.72 1557.86 1122.72C1552.65 1122.72 1546.14 1123.29 1538.33 1124.43C1530.52 1125.41 1523.44 1126.88 1517.09 1128.83C1504.39 1132.41 1495.44 1137.21 1490.23 1143.23C1485.35 1148.93 1480.71 1151.94 1476.32 1152.27C1467.53 1152.92 1462.97 1150.07 1462.65 1143.72C1462 1133.96 1475.67 1124.27 1503.66 1114.67C1523.36 1108.32 1545.17 1105.15 1569.09 1105.15C1593.18 1105.15 1613.28 1107.26 1629.39 1111.49C1645.67 1115.73 1659.1 1121.5 1669.68 1128.83C1690.67 1143.15 1701.17 1162.68 1701.17 1187.42C1701.17 1211.67 1688.88 1232.02 1664.31 1248.46C1655.84 1254.15 1645.91 1258.87 1634.52 1262.62C1671.96 1274.66 1696.53 1295.41 1708.25 1324.87C1712 1334.64 1713.87 1346.11 1713.87 1359.3C1713.87 1372.48 1710.45 1385.42 1703.61 1398.12C1696.94 1410.81 1687.26 1421.72 1674.56 1430.83C1647.87 1450.04 1611.49 1459.64 1565.43 1459.64C1525.88 1459.64 1491.7 1448.65 1462.89 1426.68C1452.8 1419.03 1446.04 1410.73 1442.63 1401.78C1441.65 1399.17 1441.24 1396.89 1441.41 1394.94C1441.89 1388.11 1444.99 1384.93 1450.68 1385.42C1456.54 1386.23 1461.1 1389.9 1464.36 1396.41C1467.61 1402.75 1472.09 1408.53 1477.78 1413.74C1483.48 1418.79 1490.32 1423.42 1498.29 1427.66C1516.03 1436.93 1535.4 1441.57 1556.4 1441.57H1578.86V1272.87C1573 1272.22 1567.63 1271.89 1562.74 1271.89H1553.47L1528.08 1273.36C1516.85 1273.36 1511.23 1270.19 1511.23 1263.84C1511.23 1256.03 1516.6 1252.12 1527.34 1252.12L1567.63 1253.83ZM1607.91 1129.32C1604.49 1128.18 1600.75 1127.2 1596.68 1126.39L1607.91 1129.32ZM1815.67 1159.1L1799.8 1163.74C1789.71 1166.67 1782.15 1169.44 1777.1 1172.04C1768.15 1176.92 1761.56 1179.28 1757.32 1179.12C1750.33 1178.96 1747.07 1175.95 1747.56 1170.09C1747.88 1164.07 1753.34 1159.83 1763.92 1157.39C1769.94 1155.76 1775.96 1154.06 1781.98 1152.27L1940.43 1104.66V1455H1815.43L1815.67 1159.1Z" fill="url(#paint0_linear_423_4751)"/>
<defs>
<linearGradient id="paint0_linear_423_4751" x1="12.5" y1="1000" x2="1987.5" y2="1000" gradientUnits="userSpaceOnUse">
<stop stop-color="#7F7F7F"/>
<stop offset="1" stop-color="#11151C"/>
</linearGradient>
</defs>
</svg>
